<svg xmlns="http://www.w3.org/2000/svg" xmlns:xlink="http://www.w3.org/1999/xlink" version="1.1" x="0px" y="0px" viewBox="-255 347 100 125" enable-background="new -255 347 100 100" xml:space="preserve"><g><path d="M-167.2,434.8c-8.2,8.2-21.6,8.2-29.8,0l-22.9-22.9l29.8-29.8l22.9,22.9C-159,413.2-159,426.6-167.2,434.8 M-197.5,381.7   c-0.7,0.7-1.8,0.7-2.5,0l-17.8-17.8c-5.6-5.6-14.8-5.6-20.4,0c-0.7,0.7-1.8,0.7-2.5,0s-0.7-1.8,0-2.5c7-7,18.3-7,25.3,0l17.8,17.8   C-196.8,379.9-196.8,381-197.5,381.7 M-164.3,402.1l-22.9-22.9l-22.9-22.9c-9.8-9.8-25.7-9.8-35.5,0c-9.8,9.8-9.8,25.7,0,35.5   l22.9,22.9l22.9,22.9c9.8,9.8,25.7,9.8,35.5,0C-154.6,427.9-154.6,411.9-164.3,402.1"/></g><text x="-255" y="462" fill="#000000" font-size="5px" font-weight="bold" font-family="'Helvetica Neue', Helvetica, Arial-Unicode, Arial, Sans-serif">Created by Rediffusion</text><text x="-255" y="467" fill="#000000" font-size="5px" font-weight="bold" font-family="'Helvetica Neue', Helvetica, Arial-Unicode, Arial, Sans-serif">from the Noun Project</text></svg>