<svg width="100" height="125" xmlns="http://www.w3.org/2000/svg">

 <g>
  <title>background</title>
  <rect fill="none" id="canvas_background" height="402" width="582" y="-1" x="-1"/>
 </g>
 <g>
  <title>Layer 1</title>
  <g id="svg_6">
   <path id="svg_1" d="m55.353,84.735926c-0.819,-2.492 -4.282,-7.577 -4.43,-7.792c-0.186,-0.272 -0.492,-0.45 -0.821,-0.45c-0.001,0 -0.003,0 -0.004,0c-0.327,0 -0.635,0.174 -0.821,0.444c-0.149,0.215 -3.664,5.303 -4.439,7.824c-0.984,3.198 -0.22,5.185 0.596,6.288c1.02,1.38 2.729,2.172 4.692,2.172c1.809,0 3.512,-0.865 4.556,-2.308c1.197,-1.654 1.435,-3.851 0.671,-6.178zm-2.291,5.008c-0.67,0.925 -1.768,1.478 -2.937,1.478c-1.341,0 -2.436,-0.483 -3.084,-1.36c-0.776,-1.051 -0.877,-2.611 -0.292,-4.512c0.444,-1.445 2.156,-4.223 3.343,-6.028c1.179,1.813 2.886,4.602 3.36,6.047c0.56,1.7 0.42,3.255 -0.39,4.375z"/>
   <path id="svg_2" d="m63.398,64.054926l1.652,-1.687c0.45,-0.486 0.45,-1.186 0.45,-1.568l0,-5.824c0,-0.624 -0.165,-1.059 -0.567,-1.537l-0.857,-0.945l0.508,0c0.283,0 0.553,-0.121 0.743,-0.331c0.189,-0.211 0.28,-0.492 0.252,-0.774l-1.872,-18.026c-0.015,-0.285 -0.329,-0.834 -0.812,-0.89c-5.101,-0.588 -6.395,-4.664 -6.395,-6.956l0,-3.6c0,-1.642 -1.106,-3.1 -2.66,-3.628l-0.925,-0.305c-1.95,-0.664 -4.102,-0.636 -6.032,0.084l-0.707,0.196c-1.494,0.557 -2.676,2.001 -2.676,3.593l0,3.66c0,2.364 -1.707,6.358 -6.753,6.956c-0.471,0.056 -0.704,0.525 -0.704,0.89l-1.872,18.025c-0.028,0.282 0.063,0.563 0.252,0.774c0.19,0.21 0.46,0.331 0.743,0.331l0.508,0l-0.711,0.781c-0.451,0.432 -0.463,1.251 -0.463,1.538l0,6c0,0.323 0,1.271 0.484,1.728l1.504,1.516c-2.297,0.924 -3.988,3.171 -3.988,5.795l0,31.404c0,3.447 2.909,6.239 6.355,6.239l22.039,0c3.447,0 6.606,-2.792 6.606,-6.238l0,-31.405c0,-2.624 -1.805,-4.871 -4.102,-5.796zm-28.898,10.439l31,0l0,20l-31,0l0,-20zm4.429,-11l-1.307,-1l24.507,0l-1.307,1l-21.893,0zm24.571,-3l-27,0l0,-5l27,0l0,5zm-27.225,-10l1.664,-16l23.871,0l1.664,16l-27.199,0zm9.225,-24.508l0,-4.129c0,-0.762 0.651,-1.452 1.365,-1.718l0.614,-0.196c1.501,-0.56 3.202,-0.582 4.718,-0.066l0.978,0.305c0.743,0.252 1.325,0.95 1.325,1.735l0,4.448c0.167,2.087 1.144,4.129 3.119,6.129l-15.401,0c3.22,-2.833 3.282,-6.449 3.282,-6.508zm15.873,26.508l0.949,1l-24.894,0l0.949,-1l22.996,0zm-22.518,13l22.039,0c2.344,0 4.606,2.014 4.606,4.357l0,2.643l-31,0l0,-2.643c0,-2.343 2.012,-4.357 4.355,-4.357zm22.04,40l-22.04,0c-2.343,0 -4.355,-1.895 -4.355,-4.238l0,-4.762l31,0l0,4.762c0,2.343 -2.262,4.238 -4.605,4.238z"/>
   <path id="svg_3" d="m50.159,88.303926c-0.616,-0.047 -0.749,-0.269 -0.792,-0.341c-0.299,-0.498 -0.026,-1.665 0.251,-2.297c0.224,-0.504 -0.003,-1.094 -0.507,-1.318c-0.504,-0.229 -1.095,0.002 -1.32,0.506c-0.114,0.256 -1.088,2.546 -0.143,4.132c0.322,0.541 0.993,1.208 2.358,1.313c0.025,0.002 0.052,0.003 0.077,0.003c0.518,0 0.956,-0.399 0.996,-0.924c0.043,-0.552 -0.369,-1.032 -0.92,-1.074z"/>
  </g>
 </g>
</svg>