<svg xmlns="http://www.w3.org/2000/svg" xmlns:xlink="http://www.w3.org/1999/xlink" version="1.1" x="0px" y="0px" viewBox="0 0 100 125" enable-background="new 0 0 100 100" xml:space="preserve"><path d="M50,15.6c-25.2,0-45,10.4-45,23.8v21.3c0,13.3,19.8,23.8,45,23.8s45-10.4,45-23.8V39.4C95,26.1,75.2,15.6,50,15.6z   M21.3,26.4l54.3,27.2c-7,2.8-16,4.5-25.7,4.5c-21.7,0-40-8.6-40-18.8C10,34.4,14.4,29.8,21.3,26.4z M90,60.6  c0,10.2-18.3,18.8-40,18.8s-40-8.6-40-18.8V50.4c7.4,7.6,22.4,12.7,40,12.7S82.6,58,90,50.4V60.6z M78.7,52.3L24.3,25.1  c7-2.8,16-4.5,25.7-4.5c21.7,0,40,8.6,40,18.8C90,44.3,85.6,48.9,78.7,52.3z"/><text x="0" y="115" fill="#000000" font-size="5px" font-weight="bold" font-family="'Helvetica Neue', Helvetica, Arial-Unicode, Arial, Sans-serif">Created by Arthur Shlain</text><text x="0" y="120" fill="#000000" font-size="5px" font-weight="bold" font-family="'Helvetica Neue', Helvetica, Arial-Unicode, Arial, Sans-serif">from the Noun Project</text></svg>