<svg xmlns:dc="http://purl.org/dc/elements/1.1/" xmlns:cc="http://creativecommons.org/ns#" xmlns:rdf="http://www.w3.org/1999/02/22-rdf-syntax-ns#" xmlns:svg="http://www.w3.org/2000/svg" xmlns="http://www.w3.org/2000/svg" xmlns:sodipodi="http://sodipodi.sourceforge.net/DTD/sodipodi-0.dtd" xmlns:inkscape="http://www.inkscape.org/namespaces/inkscape" version="1.1" x="0px" y="0px" viewBox="0 0 100 125"><g transform="translate(0,-952.36218)"><path style="text-indent:0;text-transform:none;direction:ltr;block-progression:tb;baseline-shift:baseline;color:#000000;enable-background:accumulate;" d="m 50.004129,966.36215 c -20.95569,0 -37.995869,12.94719 -37.995869,28.8502 -0.18748,17.13695 2.812194,27.13705 9.421488,33.61675 6.321642,6.6688 15.886777,9.5331 28.574381,9.5331 12.687601,0 22.252741,-2.8643 28.574381,-9.5331 9.23401,-8.4797 9.38764,-22.5816 9.42149,-33.61675 0,-15.903 -17.04018,-28.8502 -37.995871,-28.8502 z m 0,3.4809 c 18.480201,0 33.409091,11.3449 33.409091,25.3693 0,9.83275 -7.34674,18.34245 -18.09918,22.54715 L 38.568178,971.37955 c 3.566551,-0.9851 7.415045,-1.5365 11.435951,-1.5365 z m -15.278926,2.7909 26.714877,46.37985 c -3.56655,0.983 -7.415045,1.5366 -11.435951,1.5366 -18.480199,0 -33.409091,-11.3138 -33.409091,-25.33805 0,-9.8426 7.360367,-18.36991 18.130165,-22.5784 z m -17.634298,36.97215 c 6.579486,8.6138 18.867868,14.4251 32.913224,14.4251 14.045351,0 26.333741,-5.8113 32.913221,-14.4251 -1.15695,7.2278 -3.55702,12.5995 -7.19008,16.4321 -5.33125,5.6239 -13.61736,8.3101 -25.723141,8.3101 -12.105786,0 -20.391891,-2.6862 -25.723142,-8.3101 -3.633048,-3.8326 -6.033118,-9.2043 -7.190082,-16.4321 z" fill="#000000" fill-opacity="1" stroke="none" marker="none" visibility="visible" display="inline" overflow="visible"/></g><text x="0" y="115" fill="#000000" font-size="5px" font-weight="bold" font-family="'Helvetica Neue', Helvetica, Arial-Unicode, Arial, Sans-serif">Created by arif fajar yulianto</text><text x="0" y="120" fill="#000000" font-size="5px" font-weight="bold" font-family="'Helvetica Neue', Helvetica, Arial-Unicode, Arial, Sans-serif">from the Noun Project</text></svg>