<svg width="100" height="125" xmlns="http://www.w3.org/2000/svg">

 <g>
  <title>background</title>
  <rect fill="none" id="canvas_background" height="402" width="582" y="-1" x="-1"/>
 </g>
 <g>
  <title>Layer 1</title>
  <g id="svg_5">
   <path id="svg_1" d="m70.389,40.39l-42.78,0c-11.916,0 -21.609,9.694 -21.609,21.61c0,11.915 9.693,21.61 21.609,21.61l42.779,0c11.919,0 21.612,-9.695 21.612,-21.61c0,-11.916 -9.693,-21.61 -21.611,-21.61zm-60.151,21.61c0,-9.579 7.793,-17.371 17.371,-17.371l19.271,0l0,2.396l-22.651,0c-1.17,0 -2.12,0.948 -2.12,2.119s0.95,2.12 2.12,2.12l22.651,0l0,28.106l-19.271,0c-9.578,0 -17.371,-7.792 -17.371,-17.37zm60.151,17.37l-19.269,0l0,-28.106l14.032,0c1.17,0 2.12,-0.949 2.12,-2.12s-0.95,-2.119 -2.12,-2.119l-14.032,0l0,-2.396l19.269,0c9.58,0 17.373,7.792 17.373,17.371c0,9.578 -7.793,17.37 -17.373,17.37z" fill="#000000"/>
   <path id="svg_2" d="m74.179,47.024l-3.073,0c-1.17,0 -2.118,0.948 -2.118,2.119s0.948,2.12 2.118,2.12l3.073,0c1.171,0 2.119,-0.949 2.119,-2.12s-0.948,-2.119 -2.119,-2.119z" fill="#000000"/>
  </g>
 </g>
</svg>