<?xml version="1.0" encoding="iso-8859-1"?>
<!-- Generator: Adobe Illustrator 19.0.0, SVG Export Plug-In . SVG Version: 6.00 Build 0)  -->
<svg xmlns="http://www.w3.org/2000/svg" xmlns:xlink="http://www.w3.org/1999/xlink" version="1.1" id="Layer_1" x="0px" y="0px" viewBox="0 0 512.001 512.001" style="enable-background:new 0 0 512.001 512.001;" xml:space="preserve" width="512px" height="512px">
<g>
	<g>
		<path d="M443.077,392.857h-14.085c-0.511,3.673-1.248,7.317-2.214,10.907c-3.616,13.443-10.369,25.879-19.631,36.265V512h35.93    c32.848,0,59.571-26.723,59.571-59.571S475.924,392.857,443.077,392.857z" fill="#FFFFFF"/>
	</g>
</g>
<g>
	<g>
		<path d="M316.639,157.286v-25.663H45.119v25.663c-20.235,3.171-35.766,20.72-35.766,41.832v30.583v209.371v72.928h30.001h162.057    c-9.085-10.205-15.757-22.404-19.4-35.575c-3.355-12.132-4.103-24.915-2.241-37.355H39.356V229.701h242.037v83.268    c16.325-14.306,37.018-22.139,58.926-22.139c4.033,0,8.078,0.28,12.086,0.822v-92.534    C352.405,178.006,336.875,160.457,316.639,157.286z" fill="#FFFFFF"/>
	</g>
</g>
<g>
	<g>
		<path d="M357.036,490.36l-21.364,21.363c1.836,0.173,3.684,0.277,5.544,0.277h35.93v-41.75L357.036,490.36z" fill="#FFFFFF"/>
	</g>
</g>
<g>
	<g>
		<rect x="9.354" width="343.046" height="101.625" fill="#FFFFFF"/>
	</g>
</g>
<g>
	<g>
		<path d="M251.576,384.898l-25.406,25.406c-8.199,8.199-13.49,18.217-15.901,28.765c-2.346,10.27-1.953,21.045,1.184,31.143    c0.369,1.188,0.776,2.366,1.221,3.534c0.445,1.167,0.928,2.323,1.449,3.466c0.781,1.714,1.648,3.399,2.601,5.047    c1.27,2.198,2.692,4.331,4.266,6.384c1.574,2.053,3.3,4.027,5.179,5.905c1.406,1.408,2.87,2.735,4.387,3.981    c10.619,8.723,23.812,13.468,37.736,13.468c5.967,0,11.8-0.871,17.354-2.554c1.851-0.561,3.671-1.212,5.455-1.951    c0.892-0.37,1.775-0.761,2.648-1.174c6.111-2.892,11.744-6.846,16.666-11.77l25.406-25.406L251.576,384.898z" fill="#FFFFFF"/>
	</g>
</g>
<g>
	<g>
		<path d="M398.154,366.184c-2.498-10.232-7.734-19.928-15.712-27.905c-8.346-8.346-18.735-13.904-30.037-16.221    c-3.934-0.807-7.977-1.228-12.086-1.228c-0.994,0-1.985,0.024-2.971,0.072c-1.973,0.096-3.928,0.288-5.86,0.574    c-0.966,0.143-1.926,0.309-2.88,0.498c-1.908,0.378-3.79,0.849-5.641,1.41c-0.926,0.281-1.843,0.583-2.753,0.909    c-8.185,2.927-15.687,7.656-22.016,13.986l-16.804,16.803l-8.602,8.602l84.246,84.246l20.11-20.11l5.296-5.296    C397.692,407.275,402.929,385.747,398.154,366.184z" fill="#FFFFFF"/>
	</g>
</g>
<g>
	<g>
		<rect x="81.936" y="296.364" width="156.877" height="30.001" fill="#FFFFFF"/>
	</g>
</g>
<g>
	<g>
		<polygon points="81.936,342.405 81.936,372.406 221.64,372.406 238.813,372.406 238.813,355.234 238.813,342.405   " fill="#FFFFFF"/>
	</g>
</g>
<g>
</g>
<g>
</g>
<g>
</g>
<g>
</g>
<g>
</g>
<g>
</g>
<g>
</g>
<g>
</g>
<g>
</g>
<g>
</g>
<g>
</g>
<g>
</g>
<g>
</g>
<g>
</g>
<g>
</g>
</svg>
