<svg xmlns="http://www.w3.org/2000/svg" xmlns:xlink="http://www.w3.org/1999/xlink" version="1.1" x="0px" y="0px" viewBox="0 0 100 125" enable-background="new 0 0 100 100" xml:space="preserve"><g><path fill-rule="evenodd" clip-rule="evenodd" d="M49.495,48.99c0-0.001,0-0.001,0-0.002v-7.389c0-2.731-1.385-5.623-2.986-8.971   c-1.674-3.498-3.537-7.403-4.309-12.043h1.474c1.188,0,2.152-0.963,2.152-2.151s-0.963-2.152-2.152-2.152h-0.34V8.817   c0-2.13-1.734-3.864-3.865-3.864h-9.69c-2.131,0-3.864,1.734-3.864,3.864v7.464h-0.631c-1.188,0-2.151,0.964-2.151,2.152   s0.963,2.151,2.151,2.151h1.723c-0.771,4.641-2.633,8.546-4.308,12.044c-1.602,3.348-2.986,6.239-2.986,8.97v7.391v26.904v10.34   c0,4.86,3.954,8.813,8.813,8.813h12.157c4.859,0,8.813-3.953,8.813-8.813l-0.001-22.317V48.99z M47.88,63.916v11.171H21.327v-25.29   H47.88V63.916z M39.03,16.281h-2.189V9.256h2.189V16.281z M30.218,9.256h2.32v7.025h-2.32V9.256z"/><path fill-rule="evenodd" clip-rule="evenodd" d="M79.933,88.134L64.74,64.459c-0.483-0.753-0.443-1.683,0.103-2.393   c1.542-2.004,1.608-4.958-0.598-8.365c-2.889-4.458-7.202-7.289-10.563-5.296c-3.36,1.993-2.223,7.507,0.225,11.748   c1.847,3.198,4.324,4.574,6.764,4.287c0.878-0.104,1.688,0.326,2.092,1.111l12.927,25.033c0.287,0.557,0.739,0.93,1.341,1.105   c0.601,0.177,1.184,0.105,1.726-0.206l0.423-0.245c0.543-0.313,0.895-0.782,1.042-1.392C80.368,89.239,80.271,88.661,79.933,88.134   z"/><polygon fill-rule="evenodd" clip-rule="evenodd" points="32.101,72.29 37.107,72.29 37.107,64.944 44.452,64.944 44.452,59.939    37.107,59.939 37.107,52.595 32.101,52.595 32.101,59.939 24.756,59.939 24.756,64.944 32.101,64.944  "/></g><text x="0" y="115" fill="#000000" font-size="5px" font-weight="bold" font-family="'Helvetica Neue', Helvetica, Arial-Unicode, Arial, Sans-serif">Created by Nikita Kozin</text><text x="0" y="120" fill="#000000" font-size="5px" font-weight="bold" font-family="'Helvetica Neue', Helvetica, Arial-Unicode, Arial, Sans-serif">from the Noun Project</text></svg>