<svg xmlns="http://www.w3.org/2000/svg" xmlns:xlink="http://www.w3.org/1999/xlink" version="1.1" x="0px" y="0px" viewBox="2784.6 1367.3 100 125" enable-background="new 2784.6 1367.3 100 100" xml:space="preserve"><g><path d="M5556.1,2722.6c-9.3,0-16.9-7.6-16.9-16.9v-10.1c0-9.3,7.6-16.9,16.9-16.9s16.9,7.6,16.9,16.9v10.1   C5572.9,2715,5565.4,2722.6,5556.1,2722.6z M5556.1,2684.6c-6.1,0-11.1,5-11.1,11.1v10.1c0,6.1,5,11.1,11.1,11.1   c6.1,0,11.1-5,11.1-11.1v-10.1C5567.1,2689.5,5562.2,2684.6,5556.1,2684.6z"/></g><g><path d="M5583.7,2758.7h-55.3c-1.6,0-2.9-1.3-2.9-2.9v-10.9c0-15.9,5.9-24,17.6-24c0.7,0,1.4,0.3,1.9,0.7l11,9.6l10.8-9.6   c0.5-0.5,1.2-0.7,1.9-0.7c8.1,0,17.8,4.2,17.8,24v10.9C5586.6,2757.4,5585.3,2758.7,5583.7,2758.7z M5531.4,2752.8h49.4v-8   c0-15.2-6-17.8-10.9-18.1l-11.8,10.5c-1.1,1-2.7,1-3.8,0l-12-10.5c-5.2,0.3-10.8,3.1-10.8,18.1V2752.8z"/></g><g><g><rect x="5565.9" y="2732.9" width="5.8" height="17"/></g><g><rect x="5560.3" y="2738.6" width="16.4" height="5.8"/></g></g><g><path d="M5568.8,2706.7h-25.1c-1.6,0-2.9-1.3-2.9-2.9c0-1.6,1.3-2.9,2.9-2.9h25.1c1.6,0,2.9,1.3,2.9,2.9   C5571.7,2705.4,5570.4,2706.7,5568.8,2706.7z"/></g><g><polygon points="2826.7,1429.6 2831.7,1429.6 2831.7,1434.6 2837.5,1434.6 2837.5,1429.6 2842.1,1429.6 2842.1,1423.8    2837.5,1423.8 2837.5,1418.7 2831.7,1418.7 2831.7,1423.8 2826.7,1423.8  "/><path d="M2848.3,1400.7h0.9c1.6,0,2.9-1.3,2.9-2.9v-14.1c0-1.6-1.3-2.9-2.9-2.9h-29.5c-1.6,0-2.9,1.3-2.9,2.9v14.1   c0,1.6,1.3,2.9,2.9,2.9h1.3c-4.6,3.9-7.5,9.7-7.5,16.2v27.8c0,5.1,4.2,9.3,9.3,9.3h23.7c5.1,0,9.3-4.2,9.3-9.3v-27.8   C2855.8,1410.4,2852.9,1404.6,2848.3,1400.7z M2822.6,1386.5h23.7v8.3h-23.7V1386.5z M2850,1416.8v19.8h-30.7v-19.8   c0,0,0-0.1,0-0.1h30.7C2850,1416.8,2850,1416.8,2850,1416.8z M2820.5,1410.9c2.3-5.5,7.8-9.4,14.2-9.4c6.4,0,11.8,3.9,14.2,9.4   H2820.5z M2846.5,1448.1h-23.7c-1.9,0-3.5-1.6-3.5-3.5v-2.2h30.7v2.2C2850,1446.6,2848.4,1448.1,2846.5,1448.1z"/></g><text x="2784.6" y="1482.3" fill="#000000" font-size="5px" font-weight="bold" font-family="'Helvetica Neue', Helvetica, Arial-Unicode, Arial, Sans-serif">Created by Kirill Kolchenko</text><text x="2784.6" y="1487.3" fill="#000000" font-size="5px" font-weight="bold" font-family="'Helvetica Neue', Helvetica, Arial-Unicode, Arial, Sans-serif">from the Noun Project</text></svg>