<svg xmlns="http://www.w3.org/2000/svg" xmlns:xlink="http://www.w3.org/1999/xlink" version="1.1" x="0px" y="0px" viewBox="0 0 100 125" enable-background="new 0 0 100 100" xml:space="preserve"><path d="M61.832,54.841l-0.28-0.383c-3.603-4.912-4.331-10.297-4.477-12.384c-0.063-0.89-0.899-1.612-1.721-1.842  C55.034,39.252,54,38.491,53,38.256V8.642c0-1.438-0.948-2.605-2.379-2.636C50.611,6.005,50.706,6,50.696,6  c-0.005,0,0.042,0.001,0.038,0.001S50.75,6,50.746,6c-0.01,0-0.084,0.005-0.094,0.006C49.221,6.037,48,7.204,48,8.642v29.614  c-1,0.236-1.75,0.998-2.069,1.981c-0.816,0.234-1.399,0.953-1.461,1.837c-0.146,2.087-0.854,7.472-4.457,12.384l-0.273,0.387  c-4.783,6.521-9.297,12.682-10.446,19.847c-0.767,4.777,0.874,10.227,4.278,14.221C36.327,92.146,41.534,96,50.688,96  c0.038,0,0.07-0.017,0.107-0.021C50.831,95.983,50.863,96,50.901,96c9.151,0,14.357-3.853,17.111-7.085  c3.403-3.993,5.042-9.444,4.274-14.224C71.137,67.524,66.617,61.363,61.832,54.841z M50,38.851V8.642c0-0.349,0.152-0.631,0.5-0.639  c0.348,0.008,0.5,0.29,0.5,0.639v30.209C51,39.532,51.443,40,52.104,40h-3.13C49.635,40,50,39.532,50,38.851z M66.49,87.618  C64.009,90.529,59.29,94,50.901,94c-0.038,0-0.069,0.017-0.106,0.021C50.759,94.017,50.727,94,50.689,94  c-8.391,0-13.111-3.472-15.594-6.385c-3.628-4.256-4.354-9.303-3.823-12.607c1.073-6.688,5.453-12.659,10.089-18.98l0.284-0.46  C45.557,50.234,46.347,44,46.569,42h4.23l4.279,0.138c0.158,2.261,0.948,8.133,4.859,13.466l0.281,0.401  c4.638,6.323,9.02,12.304,10.093,18.994C70.843,78.304,70.117,83.362,66.49,87.618z"/><path d="M65.217,68.566c-0.248-0.493-0.848-0.693-1.342-0.445s-0.693,0.849-0.445,1.342c1.014,2.021,1.651,3.903,1.949,5.756  c0.788,4.914-2.088,11.391-8.972,13.713c-0.523,0.177-0.805,0.743-0.628,1.267c0.141,0.418,0.53,0.681,0.947,0.681  c0.105,0,0.214-0.017,0.319-0.053c7.926-2.674,11.227-10.2,10.308-15.924C67.023,72.844,66.324,70.771,65.217,68.566z"/><path d="M57.498,60.422c1.117,1.521,2.172,2.959,3.161,4.419c0.193,0.285,0.509,0.438,0.829,0.438c0.193,0,0.389-0.056,0.561-0.172  c0.457-0.311,0.576-0.933,0.267-1.39c-1.011-1.49-2.076-2.942-3.204-4.479l-0.209-0.285c-0.328-0.445-0.952-0.542-1.398-0.215  c-0.445,0.327-0.541,0.953-0.215,1.398L57.498,60.422z"/><text x="0" y="115" fill="#000000" font-size="5px" font-weight="bold" font-family="'Helvetica Neue', Helvetica, Arial-Unicode, Arial, Sans-serif">Created by  Laymik</text><text x="0" y="120" fill="#000000" font-size="5px" font-weight="bold" font-family="'Helvetica Neue', Helvetica, Arial-Unicode, Arial, Sans-serif">from the Noun Project</text></svg>