<svg width="100" height="125" xmlns="http://www.w3.org/2000/svg">

 <g>
  <title>background</title>
  <rect fill="none" id="canvas_background" height="402" width="582" y="-1" x="-1"/>
 </g>
 <g>
  <title>Layer 1</title>
  <rect id="svg_1" height="90" width="90" fill="none" y="17.5" x="5"/>
  <g id="svg_2">
   <path id="svg_3" d="m60.416999,58.892499l0,-2.662l0.031,0c0.725,0 1.311,-0.587 1.311,-1.311l0,-3.01l0.145,0c0.723,0 1.311,-0.587 1.311,-1.311l0,-11.588c0,-0.724 -0.588,-1.311 -1.311,-1.311l-3.273,0c-0.818,-1.671 -1.018,-3.793 -1.059,-5.001l0,-8.47c0,-3.693 -3.396,-6.697 -7.572,-6.697c-4.176,0 -7.573,3.004 -7.573,6.697l0,8.47c-0.042,1.208 -0.24,3.33 -1.058,5.001l-3.273,0c-0.724,0 -1.311,0.586 -1.311,1.311l0,11.588c0,0.724 0.587,1.311 1.311,1.311l0.144,0l0,3.01c0,0.724 0.587,1.311 1.311,1.311l0.032,0l0,2.662c-4.335,0.567 -7.674,3.906 -7.674,7.929l0,34.637c0,3.314 3.001,6.01 6.69,6.01l22.804,0c3.688,0 6.688,-2.695 6.688,-6.01l0,-34.637c-0.002,-4.023 -3.34,-7.362 -7.674,-7.929zm-25.888,13.287l30.939,0l0,21.916l-30.939,0l0,-21.916zm7.674,-12.323l0,-4.675l2.809,0c0.056,0 0.112,-0.006 0.166,-0.017c0.053,0.011 0.107,0.017 0.165,0.017c0.434,0 0.786,-0.352 0.786,-0.786c0,-0.433 -0.353,-0.787 -0.786,-0.787c-0.058,0 -0.112,0.006 -0.165,0.019c-0.055,-0.012 -0.11,-0.019 -0.166,-0.019l-4.119,0l-0.032,0l0,-2.749l18.277,0l0,2.749l-0.031,0l-4.118,0l-0.002,0l-0.332,0c-0.434,0 -0.787,0.354 -0.787,0.787c0,0.434 0.354,0.786 0.787,0.786l0.33,0c0.002,0 0.002,0 0.002,0l2.809,0l0,4.675l-15.593,0zm15.661,-19.535l2.652,0l0,8.966l-0.068,0l-20.898,0l-0.068,0l0,-8.966l2.652,0l15.73,0zm-12.818,-7.558c0.001,-0.015 0.001,-0.03 0.001,-0.044l0,-8.491c0,-2.248 2.222,-4.076 4.952,-4.076c2.73,0 4.951,1.828 4.951,4.076l0,8.491c0,0.014 0,0.029 0.002,0.044c0.045,1.402 0.281,3.876 1.275,5.984l-12.457,0c0.995,-2.108 1.23,-4.582 1.276,-5.984zm-4.154,28.666l18.214,0c3.508,0 6.361,2.419 6.361,5.392l0,3.785l-30.938,0l0,-3.785c0,-2.972 2.855,-5.392 6.363,-5.392zm20.509,43.418l-22.804,0c-2.244,0 -4.068,-1.521 -4.068,-3.389l0,-5.789l30.939,0l0,5.789c0,1.867 -1.824,3.389 -4.067,3.389z"/>
   <path id="svg_4" d="m49.577999,53.608499l-0.84,0c-0.435,0 -0.787,0.352 -0.787,0.787c0,0.434 0.353,0.786 0.787,0.786l0.84,0c0.435,0 0.787,-0.352 0.787,-0.786c0,-0.435 -0.353,-0.787 -0.787,-0.787z"/>
  </g>
 </g>
</svg>