<svg xmlns="http://www.w3.org/2000/svg" xmlns:xlink="http://www.w3.org/1999/xlink" version="1.1" x="0px" y="0px" viewBox="0 0 100 125" enable-background="new 0 0 100 100" xml:space="preserve"><rect x="5" y="5" fill="none" width="90" height="90"/><g><path d="M60.418,46.393v-2.662h0.031c0.725,0,1.311-0.587,1.311-1.311v-3.01h0.145c0.723,0,1.311-0.587,1.311-1.311V26.511   c0-0.724-0.588-1.311-1.311-1.311h-3.273c-0.818-1.671-1.018-3.793-1.059-5.001v-8.47c0-3.693-3.396-6.697-7.572-6.697   c-4.176,0-7.573,3.004-7.573,6.697v8.47c-0.042,1.208-0.24,3.33-1.058,5.001h-3.273c-0.724,0-1.311,0.586-1.311,1.311v11.588   c0,0.724,0.587,1.311,1.311,1.311h0.144v3.01c0,0.724,0.587,1.311,1.311,1.311h0.032v2.662c-4.335,0.567-7.674,3.906-7.674,7.929   v34.637c0,3.314,3.001,6.01,6.69,6.01h22.804c3.688,0,6.688-2.695,6.688-6.01V54.322C68.09,50.299,64.752,46.96,60.418,46.393z    M34.53,59.68h30.939v21.916H34.53V59.68z M42.204,47.357v-4.675h2.809c0.056,0,0.112-0.006,0.166-0.017   c0.053,0.011,0.107,0.017,0.165,0.017c0.434,0,0.786-0.352,0.786-0.786c0-0.433-0.353-0.787-0.786-0.787   c-0.058,0-0.112,0.006-0.165,0.019c-0.055-0.012-0.11-0.019-0.166-0.019h-4.119h-0.032v-2.749h18.277v2.749h-0.031H54.99h-0.002   h-0.332c-0.434,0-0.787,0.354-0.787,0.787c0,0.434,0.354,0.786,0.787,0.786h0.33c0.002,0,0.002,0,0.002,0h2.809v4.675H42.204z    M57.865,27.822h2.652v8.966h-0.068H39.551h-0.068v-8.966h2.652H57.865z M45.047,20.264c0.001-0.015,0.001-0.03,0.001-0.044v-8.491   c0-2.248,2.222-4.076,4.952-4.076c2.73,0,4.951,1.828,4.951,4.076v8.491c0,0.014,0,0.029,0.002,0.044   c0.045,1.402,0.281,3.876,1.275,5.984H43.771C44.766,24.14,45.001,21.666,45.047,20.264z M40.893,48.93h18.214   c3.508,0,6.361,2.419,6.361,5.392v3.785H34.53v-3.785C34.53,51.35,37.385,48.93,40.893,48.93z M61.402,92.348H38.598   c-2.244,0-4.068-1.521-4.068-3.389V83.17h30.939v5.789C65.469,90.826,63.645,92.348,61.402,92.348z"/><path d="M49.579,41.109h-0.84c-0.435,0-0.787,0.352-0.787,0.787c0,0.434,0.353,0.786,0.787,0.786h0.84   c0.435,0,0.787-0.352,0.787-0.786C50.366,41.461,50.013,41.109,49.579,41.109z"/></g><text x="0" y="115" fill="#000000" font-size="5px" font-weight="bold" font-family="'Helvetica Neue', Helvetica, Arial-Unicode, Arial, Sans-serif">Created by Tinashe Mugayi</text><text x="0" y="120" fill="#000000" font-size="5px" font-weight="bold" font-family="'Helvetica Neue', Helvetica, Arial-Unicode, Arial, Sans-serif">from the Noun Project</text></svg>