<svg xmlns="http://www.w3.org/2000/svg" xmlns:xlink="http://www.w3.org/1999/xlink" version="1.0" x="0px" y="0px" viewBox="0 0 100 125" enable-background="new 0 0 100 100" xml:space="preserve"><g><path d="M58.894,18.869h-14.49c-0.414,0-0.75-0.336-0.75-0.75V6.506c0-0.323,0.206-0.609,0.513-0.712   c0.161-0.054,3.991-1.317,7.482-1.317s7.321,1.264,7.482,1.317c0.307,0.103,0.513,0.389,0.513,0.712v11.613   C59.644,18.533,59.308,18.869,58.894,18.869z M45.154,17.369h12.99V7.06c-1.136-0.334-3.963-1.083-6.495-1.083   c-2.537,0-5.36,0.748-6.495,1.083V17.369z"/></g><g><rect x="51.149" y="5.904" transform="matrix(0.0664 0.9978 -0.9978 0.0664 61.3562 -39.244)" width="1" height="14.522"/></g><g><rect x="51.149" y="3.417" transform="matrix(0.0664 0.9978 -0.9978 0.0664 58.8744 -41.5662)" width="1" height="14.522"/></g><g><rect x="39.45" y="22.946" width="24.398" height="1"/></g><g><path d="M51.649,97.018c-5.812,0-11.689-1.24-12.772-3.622c-0.11-0.13-0.177-0.299-0.177-0.483V23.446   c0-0.188,0.07-0.369,0.198-0.508l4.901-5.327l1.104,1.016L40.2,23.739v68.853c0,1.021,3.933,2.926,11.449,2.926   s11.449-1.904,11.449-2.926V23.743l-4.805-5.11l1.094-1.027l5.008,5.327c0.13,0.139,0.203,0.323,0.203,0.514v69.466   c0,0.185-0.066,0.354-0.177,0.483C63.339,95.777,57.462,97.018,51.649,97.018z"/></g><text x="0" y="115" fill="#000000" font-size="5px" font-weight="bold" font-family="'Helvetica Neue', Helvetica, Arial-Unicode, Arial, Sans-serif">Created by Pelin Kahraman</text><text x="0" y="120" fill="#000000" font-size="5px" font-weight="bold" font-family="'Helvetica Neue', Helvetica, Arial-Unicode, Arial, Sans-serif">from the Noun Project</text></svg>