<svg width="48" height="60" xmlns="http://www.w3.org/2000/svg">
 <style type="text/css">.st0{fill:none;stroke:#231F20;stroke-width:2;stroke-linecap:round;stroke-miterlimit:10;}</style>

 <g>
  <title>background</title>
  <rect fill="none" id="canvas_background" height="402" width="582" y="-1" x="-1"/>
 </g>
 <g>
  <title>Layer 1</title>
  <g id="svg_1">
   <path id="svg_2" d="m37,18.3l-0.9,0l0,-1.1c0,-1.2 -1,-2.2 -2.2,-2.2l-1.2,0l0,-6c0,-1.7 -1.3,-3 -2.9,-3l-4.8,0c-1.6,0 -2.9,1.4 -2.9,3l0,6l-1.1,0c-1.2,0 -2.2,1 -2.2,2.2l0,1.1l-0.9,0c-1.5,0 -2.6,1.2 -2.6,2.6c0,11.1 0,19.1 0,30.5c0,1.5 1.2,2.6 2.6,2.6l19.1,0c1.5,0 2.6,-1.2 2.6,-2.6l0,-30.5c0,-1.5 -1.1,-2.6 -2.6,-2.6zm-12.8,-6.1l2.3,0c0.6,0 1,-0.4 1,-1s-0.4,-1 -1,-1l-2.3,0l0,-1.2c0,-0.6 0.4,-1 0.9,-1l4.8,0c0.5,0 0.9,0.5 0.9,1l0,6l-6.6,0l0,-2.8zm-3.2,4.8l12.9,0c0.1,0 0.2,0.1 0.2,0.2l0,1.1l-13.3,0l0,-1.1c0,-0.1 0.1,-0.2 0.2,-0.2zm-3.7,10.5l14.1,0l0,17.9l-14.1,0l0,-17.9zm20.3,23.9c0,0.4 -0.3,0.6 -0.6,0.6l-19.1,0c-0.4,0 -0.6,-0.3 -0.6,-0.6l0,-4l15.1,0c0.6,0 1,-0.4 1,-1l0,-19.9c0,-0.6 -0.4,-1 -1,-1l-15.1,0l0,-4.6c0,-0.4 0.3,-0.6 0.6,-0.6c3.8,0 15.3,0 19.1,0c0.4,0 0.6,0.3 0.6,0.6l0,30.5z"/>
   <path id="svg_3" d="m16.7,12l1.3,0c0.6,0 1,-0.4 1,-1s-0.4,-1 -1,-1l-1.3,0c-0.6,0 -1,0.4 -1,1s0.4,1 1,1z"/>
   <path id="svg_4" d="m14.3,10l-1.3,0c-0.6,0 -1,0.4 -1,1s0.4,1 1,1l1.3,0c0.6,0 1,-0.4 1,-1s-0.5,-1 -1,-1z"/>
   <path id="svg_5" d="m10.6,10l-1.2,0c-0.6,0 -1,0.4 -1,1s0.4,1 1,1l1.3,0c0.6,0 1,-0.4 1,-1s-0.5,-1 -1.1,-1z"/>
  </g>
  <text id="svg_7" font-family="'Helvetica Neue', Helvetica, Arial-Unicode, Arial, Sans-serif" font-weight="bold" font-size="5px" fill="#000000" y="68" x="0">from the Noun Project</text>
 </g>
</svg>