<svg width="100" height="125" xmlns="http://www.w3.org/2000/svg">
 <title>Noun_Project_10Icon_5px_grid</title>

 <g>
  <title>background</title>
  <rect fill="none" id="canvas_background" height="402" width="582" y="-1" x="-1"/>
 </g>
 <g>
  <title>Layer 1</title>
  <g id="svg_9">
   <path id="svg_1" d="m59.68,49.52l-0.81,0l-0.21,-0.6a9.73,9.73 0 0 0 -6.27,-6l0,-7.07a0.89,0.89 0 0 0 -0.88,-0.85l-4,0a0.89,0.89 0 0 0 -0.89,0.89l0,7.01a9.73,9.73 0 0 0 -6.27,6l-0.21,0.6l-0.68,0a3.82,3.82 0 0 0 -4.16,4l0,41.08a3.85,3.85 0 0 0 4.07,4.07l20.31,0a3.81,3.81 0 0 0 4,-4.07l0,-41.08a3.73,3.73 0 0 0 -4,-3.98zm-11.34,-12.79l2.28,0l0,5.77a13.18,13.18 0 0 0 -2.28,0l0,-5.77zm-5.78,11.44a8,8 0 0 1 13.84,0l0.78,1.35l-15.4,0l0.78,-1.35zm19.35,46.41a2.05,2.05 0 0 1 -2.23,2.32l-20.32,0a2.11,2.11 0 0 1 -2.36,-2.32l0,-4.22l24.91,0l0,4.23l0,-0.01zm0,-5.99l-24.91,0l0,-29l24.91,0l0,29zm0,-30.79l-24.91,0l0,-4.3a2.05,2.05 0 0 1 2.32,-2.24l20.36,0a2,2 0 0 1 2.23,2.24l0,4.32l0,-0.02z"/>
   <path id="svg_2" d="m41.7,40.12l-4.25,0.88a0.82,0.82 0 1 0 0.31,1.6l4.24,-0.88a0.82,0.82 0 1 0 -0.3,-1.6z"/>
   <path id="svg_3" d="m35.76,42.08a0.82,0.82 0 0 0 -1,-0.65l-1.72,0.33a0.82,0.82 0 0 0 0.31,1.6l1.76,-0.36a0.82,0.82 0 0 0 0.65,-0.92z"/>
   <path id="svg_4" d="m42.75,34.88a0.82,0.82 0 0 0 0.91,-1.36l-3.66,-2.41a0.82,0.82 0 1 0 -0.91,1.36l3.66,2.41z"/>
   <path id="svg_5" d="m35.42,30l1.47,1a0.82,0.82 0 0 0 0.29,0.12a0.82,0.82 0 0 0 0.61,-1.48l-1.46,-1a0.82,0.82 0 0 0 -0.91,1.36z"/>
   <path id="svg_6" d="m42.37,38.36a0.82,0.82 0 0 0 0.32,-1.6l-9.77,-2a0.82,0.82 0 1 0 -0.32,1.6l9.77,2z"/>
  </g>
 </g>
</svg>