<svg xmlns="http://www.w3.org/2000/svg" xmlns:xlink="http://www.w3.org/1999/xlink" version="1.1" x="0px" y="0px" viewBox="0 0 48 60" style="enable-background:new 0 0 48 48;" xml:space="preserve"><style type="text/css">
	.st0{fill:none;stroke:#231F20;stroke-width:2;stroke-linecap:round;stroke-miterlimit:10;}
</style><g><path d="M37,12.3h-0.9v-1.1c0-1.2-1-2.2-2.2-2.2h-1.2V3c0-1.7-1.3-3-2.9-3H25c-1.6,0-2.9,1.4-2.9,3V9H21c-1.2,0-2.2,1-2.2,2.2v1.1   h-0.9c-1.5,0-2.6,1.2-2.6,2.6c0,11.1,0,19.1,0,30.5c0,1.5,1.2,2.6,2.6,2.6H37c1.5,0,2.6-1.2,2.6-2.6V14.9   C39.6,13.4,38.5,12.3,37,12.3z M24.2,6.2h2.3c0.6,0,1-0.4,1-1s-0.4-1-1-1h-2.3V3c0-0.6,0.4-1,0.9-1h4.8c0.5,0,0.9,0.5,0.9,1V9h-6.6   V6.2z M21,11h12.9c0.1,0,0.2,0.1,0.2,0.2v1.1H20.8v-1.1C20.8,11.1,20.9,11,21,11z M17.3,21.5h14.1v17.9H17.3V21.5z M37.6,45.4   c0,0.4-0.3,0.6-0.6,0.6H17.9c-0.4,0-0.6-0.3-0.6-0.6v-4h15.1c0.6,0,1-0.4,1-1V20.5c0-0.6-0.4-1-1-1H17.3v-4.6   c0-0.4,0.3-0.6,0.6-0.6c3.8,0,15.3,0,19.1,0c0.4,0,0.6,0.3,0.6,0.6V45.4z"/><path d="M16.7,6H18c0.6,0,1-0.4,1-1s-0.4-1-1-1h-1.3c-0.6,0-1,0.4-1,1S16.1,6,16.7,6z"/><path d="M14.3,4H13c-0.6,0-1,0.4-1,1s0.4,1,1,1h1.3c0.6,0,1-0.4,1-1S14.8,4,14.3,4z"/><path d="M10.6,4H9.4c-0.6,0-1,0.4-1,1s0.4,1,1,1h1.3c0.6,0,1-0.4,1-1S11.2,4,10.6,4z"/></g><text x="0" y="63" fill="#000000" font-size="5px" font-weight="bold" font-family="'Helvetica Neue', Helvetica, Arial-Unicode, Arial, Sans-serif">Created by Vectors Market</text><text x="0" y="68" fill="#000000" font-size="5px" font-weight="bold" font-family="'Helvetica Neue', Helvetica, Arial-Unicode, Arial, Sans-serif">from the Noun Project</text></svg>