<?xml version="1.0" encoding="iso-8859-1"?>
<!-- Generator: Adobe Illustrator 19.0.0, SVG Export Plug-In . SVG Version: 6.00 Build 0)  -->
<svg version="1.1" id="Layer_1" xmlns="http://www.w3.org/2000/svg" xmlns:xlink="http://www.w3.org/1999/xlink" x="0px" y="0px"
	 viewBox="0 0 490 490" style="enable-background:new 0 0 490 490;" xml:space="preserve">
<g>
	<g>
		<g>
			<path d="M368.786,308.221c6.987-15.999,10.727-31.909,10.727-49.844c0-72.049-58.619-129.884-130.668-129.884
				c-72.052,0-130.672,57.443-130.672,129.492c0,17.832,3.707,34.237,10.76,50.236H0v15h490v-15H368.786z M145.615,308.221h-0.813
				H144.8c-7.494-15.581-11.303-31.585-11.303-49.061c0-63.602,51.747-114.953,115.349-114.953s115.345,51.94,115.345,115.542
				c0,17.744-3.919,33.294-11.301,48.472h-0.001h-0.887H145.615z"/>
			<rect x="176" y="384.221" width="176" height="16"/>
			<rect x="138" y="384.221" width="23" height="16"/>
			<rect x="92" y="346.221" width="184" height="15"/>
			<rect x="291" y="346.221" width="54" height="15"/>
			<rect x="360" y="346.221" width="46" height="15"/>
			<rect x="191" y="423.221" width="108" height="15"/>
			<rect x="7" y="254.221" width="85" height="15"/>
			<rect x="398" y="254.221" width="84" height="15"/>
			
				<rect x="337.974" y="50.208" transform="matrix(0.8661 0.4999 -0.4999 0.8661 92.7886 -160.3232)" width="15.325" height="85.64"/>
			<rect x="109.287" y="85.029" transform="matrix(0.5 0.866 -0.866 0.5 156.3239 -85.3817)" width="85.637" height="15.325"/>
			<rect x="245" y="78.221" width="15" height="31"/>
			
				<rect x="87.533" y="171.089" transform="matrix(0.8661 0.4999 -0.4999 0.8661 102.7186 -27.7232)" width="31.143" height="13.545"/>
			
				<rect x="386.577" y="163.4" transform="matrix(0.4999 0.8661 -0.8661 0.4999 351.7231 -251.1704)" width="13.545" height="31.143"/>
		</g>
	</g>
</g>
<g>
</g>
<g>
</g>
<g>
</g>
<g>
</g>
<g>
</g>
<g>
</g>
<g>
</g>
<g>
</g>
<g>
</g>
<g>
</g>
<g>
</g>
<g>
</g>
<g>
</g>
<g>
</g>
<g>
</g>
</svg>
